<?xml version="1.0" encoding="UTF-8"?>
<svg id="_레이어_2" data-name="레이어 2" xmlns="http://www.w3.org/2000/svg" viewBox="0 0 129.43 134.08">
  <g id="Layer_1" data-name="Layer 1">
    <g>
      <g>
        <circle cx="16.94" cy="117.66" r="16.42"/>
        <circle cx="16.94" cy="57.44" r="16.42"/>
        <path d="M29.08,5.85c6.41,6.41,6.41,16.81,0,23.22-6.41,6.41-16.81,6.41-23.22,0C-.56,22.66.01.01.01.01.01.01,22.66-.56,29.08,5.85Z"/>
      </g>
      <g>
        <path d="M85.82,94.81c-8.52,0-15.42,6.91-15.42,15.42,8.52,0,15.42-6.91,15.42-15.42Z"/>
        <path d="M85.82,94.81c8.52,0,15.42-6.91,15.42-15.42-8.52,0-15.42,6.91-15.42,15.42Z"/>
        <path d="M85.82,94.81c0-8.52-6.91-15.42-15.42-15.42,0,8.52,6.91,15.42,15.42,15.42Z"/>
        <path d="M129.43,95.53c0-1.91-.17-3.78-.49-5.61h0c-1.42-14-13.72-26-18.8-30.41-1.57-1.36-2.8-3.07-3.6-4.99-7.44-18.03-8.42-40.3-8.42-40.3,0-3.9,1.67-6.45,2-6.68.1-.07.26-.14.54-.14h.78c1.89,0,3.68-1.29,3.95-3.16.32-2.28-1.44-4.24-3.66-4.24h-15.8c-.06,0-.11.05-.11.11,0-.06-.05-.11-.11-.11h-15.8c-2.22,0-3.99,1.96-3.66,4.24.26,1.88,2.05,3.16,3.95,3.16h.78c.28,0,.44.07.54.14.33.23,2,2.78,2,6.68,0,0-.98,22.26-8.42,40.3-.79,1.93-2.02,3.63-3.6,4.99-5.09,4.41-17.39,16.41-18.8,30.41h0c-.32,1.83-.49,3.7-.49,5.61,0,.2.01.39.02.58,0,.19-.02.39-.02.58,0,20.59,19.45,37.29,43.49,37.38.06,0,.11-.05.11-.11,0,.06.05.11.11.11,24.04-.1,43.49-16.8,43.49-37.38,0-.2-.01-.39-.02-.58,0-.19.02-.39.02-.58ZM101.25,110.24c0,8.52-6.91,15.42-15.42,15.42s-15.42-6.91-15.42-15.42c-8.52,0-15.42-6.91-15.42-15.42s6.91-15.42,15.42-15.42c0-8.52,6.91-15.42,15.42-15.42s15.42,6.91,15.42,15.42c8.52,0,15.42,6.91,15.42,15.42s-6.91,15.42-15.42,15.42Z"/>
        <path d="M85.82,94.81c0,8.52,6.91,15.42,15.42,15.42,0-8.52-6.91-15.42-15.42-15.42Z"/>
      </g>
    </g>
  </g>
</svg>