<svg width="142" height="166" viewBox="0 0 142 166" fill="none" xmlns="http://www.w3.org/2000/svg">
<g clip-path="url(#clip0_62_21)">
<mask id="mask0_62_21" style="mask-type:luminance" maskUnits="userSpaceOnUse" x="0" y="0" width="142" height="166">
<path d="M142 0H0V166H142V0Z" fill="white"/>
</mask>
<g mask="url(#mask0_62_21)">
<path d="M2.76569 121.953C2.76569 117.011 2.76569 116.124 2.70226 115.11C2.63789 114.032 2.38465 113.526 1.33456 113.304C0.978157 113.24 0.6166 113.208 0.254417 113.21C0.12709 113.21 0 113.146 0 113.019C0 112.829 0.158803 112.766 0.50836 112.766C1.93877 112.766 3.81483 112.86 4.00558 112.86C4.29148 112.86 6.13558 112.766 7.08888 112.766C7.43843 112.766 7.59724 112.829 7.59724 113.019C7.59724 113.146 7.47015 113.209 7.34306 113.209C7.07611 113.218 6.8104 113.25 6.5488 113.304C5.69018 113.462 5.43647 114 5.37257 115.109C5.3082 116.124 5.3082 117.011 5.3082 121.952V123.854H5.436C5.97607 123.252 11.7313 117.422 12.8742 116.187C13.7645 115.267 14.5914 114.444 14.5914 113.905C14.6092 113.764 14.5779 113.621 14.5026 113.5C14.4273 113.379 14.3126 113.288 14.1778 113.241C14.019 113.177 13.8919 113.114 13.8919 112.987C13.8919 112.828 14.0507 112.766 14.2731 112.766C14.9093 112.766 15.895 112.86 16.6575 112.86C16.8164 112.86 18.9142 112.766 19.7091 112.766C20.0594 112.766 20.1865 112.828 20.1865 112.987C20.1865 113.146 20.1221 113.209 19.8689 113.209C19.2519 113.239 18.6468 113.389 18.0882 113.652C16.7849 114.222 16.0858 115.015 14.6546 116.377C13.8604 117.137 8.32925 122.522 7.66185 123.315C8.48781 124.235 15.1 131.045 16.4034 132.249C19.0737 134.72 19.6138 135.227 21.1403 135.86C21.7682 136.11 22.4349 136.25 23.1107 136.272C23.3332 136.272 23.5237 136.336 23.5237 136.463C23.5237 136.621 23.3649 136.716 22.8248 136.716H21.2027C20.3131 136.716 19.7087 136.716 19.0098 136.652C17.3245 136.494 16.5302 135.797 15.1632 134.72C13.7328 133.548 6.9935 126.292 5.46771 124.424H5.3082V127.529C5.3082 130.57 5.3082 133.073 5.46771 134.403C5.56238 135.323 5.7536 136.019 6.70666 136.146C7.11744 136.212 7.53165 136.254 7.94727 136.273C8.13778 136.273 8.20145 136.367 8.20145 136.463C8.20145 136.621 8.04264 136.716 7.69238 136.716C6.13487 136.716 4.29124 136.622 4.0373 136.622C3.78335 136.622 1.93877 136.716 0.985717 136.716C0.63545 136.716 0.476647 136.653 0.476647 136.463C0.476647 136.368 0.540073 136.273 0.730827 136.273C1.05223 136.262 1.37177 136.219 1.68483 136.146C2.32028 136.019 2.47979 135.323 2.60783 134.403C2.76663 133.073 2.76663 130.57 2.76663 127.529L2.76569 121.953Z" fill="#070707"/>
<path d="M26.9598 121.953C26.9598 117.011 26.9598 116.124 26.8954 115.11C26.832 114.032 26.5785 113.526 25.5284 113.304C25.1717 113.24 24.8098 113.208 24.4473 113.21C24.3202 113.21 24.1938 113.146 24.1938 113.02C24.1938 112.829 24.3527 112.766 24.7022 112.766C26.1319 112.766 28.0714 112.861 28.3575 112.861C28.6437 112.861 30.5512 112.766 31.5052 112.766C31.8555 112.766 32.0143 112.829 32.0143 113.02C32.0143 113.146 31.8872 113.21 31.7608 113.21C31.4933 113.219 31.227 113.25 30.9649 113.304C30.1063 113.431 29.8525 114.001 29.7886 115.11C29.7252 116.124 29.7252 117.011 29.7252 121.953V126.387C29.7252 130.95 30.7429 132.913 32.1103 134.213C33.6671 135.67 35.0976 135.955 36.9109 135.955C37.8573 135.949 38.7916 135.743 39.6518 135.349C40.5121 134.956 41.2786 134.385 41.9005 133.674C43.3627 131.869 43.7449 129.176 43.7449 125.912V121.952C43.7449 117.01 43.7449 116.123 43.6815 115.109C43.6171 114.032 43.3629 113.525 42.3138 113.304C41.957 113.239 41.5952 113.208 41.2327 113.209C41.1072 113.209 40.9792 113.146 40.9792 113.019C40.9792 112.828 41.1373 112.766 41.4876 112.766C42.918 112.766 44.6662 112.86 44.8577 112.86C45.0802 112.86 46.574 112.766 47.528 112.766C47.8776 112.766 48.0364 112.828 48.0364 113.019C48.0364 113.146 47.91 113.209 47.7815 113.209C47.5145 113.218 47.2488 113.25 46.9872 113.304C46.1293 113.494 45.8749 114 45.8117 115.109C45.7473 116.123 45.7473 117.01 45.7473 121.952V125.343C45.7473 128.763 45.366 132.566 42.8221 134.815C40.5338 136.843 38.1494 137.159 36.275 137.159C35.1939 137.159 31.9828 137.032 29.7255 134.91C28.168 133.421 26.9607 131.203 26.9607 126.577L26.9598 121.953Z" fill="#070707"/>
<path d="M74.6078 127.529C74.6078 130.57 74.6079 133.073 74.7667 134.403C74.8613 135.323 75.0525 136.019 76.0065 136.146C76.4808 136.212 76.9583 136.255 77.437 136.272C77.6275 136.272 77.6911 136.368 77.6911 136.463C77.6911 136.621 77.5323 136.716 77.1828 136.716C75.4345 136.716 73.4316 136.621 73.2726 136.621C73.1135 136.621 71.1106 136.716 70.1576 136.716C69.8073 136.716 69.6485 136.653 69.6485 136.463C69.6485 136.369 69.7122 136.272 69.9027 136.272C70.2243 136.261 70.5441 136.219 70.8574 136.146C71.4921 136.019 71.6516 135.322 71.7787 134.403C71.9375 133.072 71.9375 130.57 71.9375 127.529V124.203C71.9386 124.178 71.9345 124.152 71.9253 124.129C71.9161 124.105 71.9021 124.084 71.8842 124.066C71.8663 124.048 71.8448 124.034 71.8212 124.025C71.7976 124.016 71.7723 124.012 71.747 124.013H58.2684C58.2424 124.009 58.2159 124.011 58.191 124.019C58.166 124.027 58.1433 124.041 58.1248 124.06C58.1062 124.078 58.0923 124.101 58.0841 124.126C58.076 124.151 58.0738 124.177 58.0779 124.203V127.529C58.0779 130.57 58.0779 133.073 58.2367 134.403C58.3313 135.323 58.5226 136.019 59.4766 136.146C59.9509 136.212 60.4283 136.255 60.907 136.272C61.0975 136.272 61.1612 136.368 61.1612 136.463C61.1612 136.621 61.0024 136.716 60.6528 136.716C58.9038 136.716 56.9016 136.621 56.7426 136.621C56.5836 136.621 54.5814 136.716 53.6266 136.716C53.2771 136.716 53.1183 136.653 53.1183 136.463C53.1183 136.369 53.1817 136.272 53.3725 136.272C53.6939 136.261 54.0134 136.219 54.3265 136.146C54.9626 136.019 55.1207 135.322 55.2495 134.403C55.4083 133.072 55.4083 130.57 55.4083 127.529V121.952C55.4083 117.01 55.4083 116.123 55.3448 115.11C55.2814 114.032 55.0263 113.526 53.9779 113.304C53.6212 113.239 53.2593 113.208 52.8968 113.21C52.7697 113.21 52.6426 113.146 52.6426 113.02C52.6426 112.829 52.8014 112.766 53.1509 112.766C54.5821 112.766 56.5845 112.86 56.7433 112.86C56.9021 112.86 58.9045 112.766 59.8583 112.766C60.2079 112.766 60.3674 112.829 60.3674 113.02C60.3674 113.146 60.2403 113.21 60.1125 113.21C59.8455 113.218 59.5798 113.25 59.3182 113.304C58.4603 113.462 58.2059 114.001 58.142 115.11C58.0783 116.124 58.0783 117.01 58.0783 121.952V122.618C58.0744 122.643 58.0766 122.67 58.0847 122.695C58.0929 122.72 58.1068 122.742 58.1253 122.761C58.1439 122.779 58.1665 122.793 58.1915 122.801C58.2164 122.809 58.2429 122.812 58.2689 122.808H71.747C71.773 122.812 71.7995 122.809 71.8244 122.801C71.8493 122.793 71.872 122.779 71.8905 122.761C71.9091 122.742 71.923 122.72 71.9312 122.695C71.9393 122.67 71.9415 122.643 71.9375 122.618V121.952C71.9375 117.01 71.9375 116.123 71.8739 115.11C71.8104 114.032 71.5563 113.526 70.5069 113.304C70.1503 113.239 69.7885 113.208 69.426 113.21C69.2989 113.21 69.1719 113.146 69.1719 113.02C69.1719 112.829 69.3307 112.766 69.6809 112.766C71.1106 112.766 73.1126 112.86 73.2726 112.86C73.4326 112.86 75.4345 112.766 76.3876 112.766C76.7379 112.766 76.8967 112.829 76.8967 113.02C76.8967 113.146 76.7696 113.21 76.6425 113.21C76.3753 113.218 76.1093 113.25 75.8475 113.304C74.9889 113.462 74.7352 114.001 74.6713 115.11C74.6079 116.124 74.6078 117.01 74.6078 121.952V127.529Z" fill="#070707"/>
<path d="M85.0845 121.953C85.0845 117.011 85.0845 116.124 85.0211 115.11C84.9567 114.032 84.7035 113.526 83.6541 113.304C83.2974 113.24 82.9355 113.208 82.573 113.21C82.4459 113.21 82.3188 113.146 82.3188 113.02C82.3188 112.829 82.4776 112.766 82.8272 112.766C83.5587 112.766 84.4174 112.766 85.1162 112.798L86.4196 112.861C86.642 112.861 92.9681 112.861 93.699 112.829C94.1582 112.814 94.6154 112.761 95.066 112.671C95.2255 112.639 95.3528 112.512 95.5116 112.512C95.6063 112.512 95.6387 112.639 95.6387 112.798C95.6387 113.02 95.4792 113.4 95.3838 114.287C95.3528 114.603 95.2891 115.998 95.2257 116.378C95.193 116.536 95.1296 116.726 95.0025 116.726C94.812 116.726 94.7483 116.568 94.7483 116.314C94.7506 115.926 94.6861 115.54 94.5578 115.174C94.3354 114.667 94.017 114.287 92.3005 114.097C91.7604 114.033 88.2952 114.002 87.9458 114.002C87.8187 114.002 87.7553 114.097 87.7553 114.319V123.064C87.7553 123.285 87.787 123.38 87.9458 123.38C88.3588 123.38 92.269 123.38 92.9996 123.316C93.7636 123.254 94.2066 123.19 94.4944 122.873C94.7169 122.619 94.844 122.462 94.971 122.462C95.0657 122.462 95.1299 122.524 95.1299 122.714C95.1299 122.904 94.971 123.444 94.8757 124.489C94.812 125.123 94.7486 126.294 94.7486 126.517C94.7486 126.77 94.7486 127.119 94.5261 127.119C94.3673 127.119 94.3029 126.992 94.3029 126.834C94.3181 126.481 94.2752 126.128 94.1758 125.789C94.0495 125.345 93.7636 124.806 92.523 124.68C91.6651 124.586 88.5176 124.522 87.9775 124.522C87.9475 124.518 87.917 124.522 87.8885 124.531C87.8599 124.541 87.8339 124.558 87.8125 124.579C87.7911 124.6 87.7749 124.626 87.7649 124.655C87.755 124.683 87.7516 124.713 87.7551 124.743V127.529C87.7551 128.606 87.7224 132.281 87.7551 132.946C87.8497 135.132 88.3269 135.544 91.4428 135.544C92.2688 135.544 93.6675 135.544 94.4944 135.195C95.3213 134.847 95.7014 134.213 95.9248 132.914C95.9882 132.566 96.0519 132.439 96.2107 132.439C96.4012 132.439 96.4012 132.692 96.4012 132.914C96.3151 133.945 96.1773 134.971 95.9882 135.988C95.7658 136.811 95.5116 136.811 94.271 136.811C91.8875 136.811 90.1386 136.747 88.8987 136.717C87.6588 136.653 86.8955 136.622 86.4191 136.622C86.3557 136.622 85.8154 136.622 85.1475 136.654C84.512 136.654 83.7805 136.717 83.3041 136.717C82.9538 136.717 82.795 136.654 82.795 136.464C82.795 136.369 82.8584 136.274 83.0492 136.274C83.3706 136.263 83.6901 136.22 84.0032 136.147C84.6394 136.021 84.7982 135.324 84.9262 134.404C85.085 133.074 85.085 130.571 85.085 127.53L85.0845 121.953Z" fill="#070707"/>
<path d="M108.489 127.528C108.489 130.57 108.489 133.073 108.647 134.403C108.742 135.323 108.933 136.019 109.887 136.146C110.362 136.212 110.839 136.255 111.318 136.272C111.508 136.272 111.573 136.368 111.573 136.463C111.573 136.621 111.413 136.716 111.064 136.716C109.315 136.716 107.313 136.621 107.153 136.621C106.994 136.621 104.991 136.716 104.038 136.716C103.688 136.716 103.53 136.653 103.53 136.463C103.53 136.369 103.593 136.272 103.783 136.272C104.105 136.261 104.425 136.219 104.738 136.146C105.374 136.019 105.532 135.322 105.659 134.403C105.818 133.072 105.818 130.57 105.818 127.528V121.952C105.818 117.01 105.818 116.123 105.755 115.11C105.691 114.032 105.373 113.494 104.674 113.336C104.351 113.254 104.021 113.211 103.688 113.209C103.562 113.209 103.435 113.145 103.435 113.019C103.435 112.828 103.593 112.765 103.943 112.765C104.991 112.765 106.995 112.859 107.153 112.859C107.312 112.859 109.315 112.765 110.268 112.765C110.618 112.765 110.777 112.828 110.777 113.019C110.777 113.145 110.65 113.209 110.523 113.209C110.256 113.218 109.99 113.249 109.728 113.303C108.87 113.461 108.616 114 108.552 115.109C108.489 116.123 108.489 117.009 108.489 121.951V127.528Z" fill="#070707"/>
<path d="M123.906 129.557C123.906 134.688 123.906 136.653 122.953 138.903C122.285 140.487 120.886 141.976 118.311 143.75C117.914 144.037 117.5 144.302 117.071 144.542C117.004 144.581 116.927 144.603 116.849 144.605C116.794 144.609 116.741 144.591 116.699 144.555C116.657 144.52 116.631 144.469 116.626 144.415C116.626 144.225 116.785 144.13 117.071 143.94C117.475 143.688 117.848 143.391 118.183 143.053C120.25 140.961 121.236 139.283 121.236 131.109V121.953C121.236 117.011 121.236 116.124 121.172 115.11C121.109 114.032 120.855 113.526 119.805 113.304C119.448 113.24 119.087 113.209 118.724 113.21C118.597 113.21 118.47 113.146 118.47 113.02C118.47 112.829 118.629 112.767 118.979 112.767C120.409 112.767 122.411 112.861 122.571 112.861C122.731 112.861 124.733 112.767 125.687 112.767C126.036 112.767 126.195 112.829 126.195 113.02C126.195 113.146 126.068 113.21 125.941 113.21C125.674 113.219 125.408 113.251 125.146 113.304C124.287 113.463 124.033 114.001 123.97 115.11C123.906 116.124 123.906 117.011 123.906 121.953L123.906 129.557Z" fill="#070707"/>
<path d="M138.917 127.528C138.917 130.57 138.917 133.073 139.075 134.403C139.17 135.323 139.361 136.019 140.315 136.146C140.79 136.212 141.267 136.255 141.746 136.272C141.936 136.272 142 136.368 142 136.463C142 136.621 141.841 136.716 141.492 136.716C139.743 136.716 137.74 136.621 137.581 136.621C137.422 136.621 135.419 136.716 134.466 136.716C134.116 136.716 133.958 136.653 133.958 136.463C133.958 136.369 134.021 136.272 134.211 136.272C134.533 136.261 134.852 136.219 135.165 136.146C135.801 136.019 135.96 135.322 136.088 134.403C136.247 133.072 136.247 130.57 136.247 127.528V121.952C136.247 117.01 136.247 116.123 136.184 115.11C136.12 114.032 135.802 113.494 135.103 113.336C134.78 113.254 134.449 113.211 134.117 113.209C133.99 113.209 133.863 113.145 133.863 113.019C133.863 112.828 134.022 112.765 134.372 112.765C135.42 112.765 137.423 112.859 137.582 112.859C137.741 112.859 139.744 112.765 140.697 112.765C141.047 112.765 141.206 112.828 141.206 113.019C141.206 113.145 141.079 113.209 140.951 113.209C140.684 113.218 140.419 113.249 140.157 113.303C139.299 113.461 139.045 114 138.981 115.109C138.918 116.123 138.918 117.009 138.918 121.951L138.917 127.528Z" fill="#070707"/>
<path d="M120.539 46.998C120.465 46.5118 120.428 46.0208 120.429 45.529C120.382 44.5042 120.452 43.477 120.338 42.4531C120.279 41.9203 120.222 41.3866 120.151 40.8554C120.094 40.4346 120.006 40.0174 119.948 39.5966C119.866 38.9989 119.799 38.3989 119.723 37.8003C119.708 37.7346 119.69 37.67 119.666 37.6071C119.606 37.4281 119.555 37.2461 119.514 37.0618C119.443 36.6431 119.392 36.2223 119.325 35.803C119.308 35.7151 119.279 35.63 119.238 35.5504C119.088 35.2407 119.089 34.8722 118.851 34.5958C118.827 34.5673 118.841 34.5085 118.829 34.4654C118.804 34.3696 118.772 34.2746 118.745 34.1788C118.706 34.0406 118.663 33.9024 118.634 33.7618C118.61 33.642 118.622 33.5132 118.587 33.3981C118.533 33.2252 118.26 32.3393 118.235 32.2629C118.069 31.7539 117.94 31.2319 117.759 30.7284C117.58 30.3485 117.428 29.9571 117.302 29.5568C117.3 29.5467 117.289 29.5391 117.283 29.529C116.956 28.9809 116.717 28.3849 116.575 27.7628C116.556 27.6297 116.52 27.4998 116.466 27.3767C116.173 26.9004 115.935 26.3929 115.756 25.8639C115.665 25.6003 115.553 25.3443 115.422 25.0985C115.311 24.8561 115.205 24.6096 115.074 24.378C114.913 24.1637 114.793 23.9214 114.721 23.6635C114.71 23.5928 114.644 23.53 114.603 23.4635C114.339 23.0364 114.07 22.6125 113.815 22.1816C113.738 21.9843 113.641 21.7952 113.526 21.6172C113.116 21.1761 113.051 20.5298 112.586 20.1275C112.31 19.4843 111.759 19.0255 111.411 18.4276C111.213 18.1183 110.994 17.8224 110.756 17.5417C110.64 17.3919 110.502 17.2605 110.386 17.1115C110.126 16.7787 109.876 16.4404 109.62 16.106C109.599 16.0791 109.573 16.057 109.543 16.0411C109.276 15.8757 109.06 15.6387 108.921 15.3571C108.76 15.0514 108.562 14.7663 108.331 14.508C108.136 14.2844 107.953 14.0495 107.786 13.8044C107.492 13.3892 107.16 13.0015 106.796 12.6461C106.375 12.249 105.976 11.8307 105.598 11.3927C105.314 11.0953 105.072 10.7634 104.654 10.6096C104.48 10.5464 104.351 10.358 104.2 10.2283C104.134 10.1539 104.056 10.091 103.97 10.0422C103.558 9.86523 103.191 9.59937 102.896 9.26381C102.748 9.09696 102.571 8.9576 102.375 8.85222C102.324 8.82982 102.278 8.80363 102.23 8.77816C102.148 8.73405 102.066 8.68853 101.987 8.64065C101.938 8.61918 101.888 8.6009 101.836 8.58593C101.733 8.54774 101.64 8.48734 101.563 8.40903C101.554 8.40526 101.545 8.39984 101.536 8.39583C101.222 8.24398 100.925 8.06104 100.649 7.8498C100.565 7.79807 100.483 7.74248 100.403 7.68305C100.076 7.47077 99.7455 7.26061 99.4248 7.0389C99.2714 6.93229 99.1008 6.84903 98.9436 6.74619C98.8494 6.69819 98.7524 6.6559 98.653 6.61954C98.2622 6.44906 97.8868 6.24547 97.531 6.01101C97.2707 5.8643 97.0087 5.7183 96.75 5.56853L96.7329 5.56004C96.5955 5.50013 96.4646 5.42614 96.3424 5.33927C96.0715 5.23711 95.8293 5.07123 95.6365 4.85575C95.6215 4.83723 95.6031 4.82178 95.5823 4.81022L95.5094 4.77319C95.4384 4.74536 95.3551 4.72602 95.2845 4.70361C95.0777 4.63639 94.8637 4.59016 94.6607 4.51492C94.3639 4.40383 94.0764 4.26703 93.7796 4.1557C93.5393 4.07803 93.3205 3.94558 93.1406 3.76889C93.0742 3.69679 92.992 3.641 92.9004 3.6059C92.6346 3.51486 92.3797 3.39363 92.1232 3.27923C92.0959 3.27546 92.069 3.27003 92.0417 3.26602C91.6526 3.22787 91.276 3.10725 90.9375 2.91223C90.6811 2.75724 90.4037 2.63968 90.1139 2.56315C89.5348 2.36373 88.9386 2.21798 88.3327 2.12775C88.2237 2.10507 88.1165 2.07432 88.012 2.03576C87.8284 1.99024 87.6409 1.96005 87.4594 1.90674C87.0982 1.80084 86.7418 1.6789 86.38 1.57394C86.1274 1.49216 85.8707 1.42343 85.611 1.36803C85.5187 1.35954 85.4274 1.34798 85.3337 1.34562C85.2565 1.34003 85.1802 1.32497 85.1067 1.30081C85.0594 1.29302 85.012 1.28147 84.9673 1.27062C84.799 1.24278 84.6293 1.22344 84.4637 1.18806C84.1025 1.10858 83.7447 1.01282 83.3835 0.933331C83.0905 0.855358 82.7918 0.800624 82.4901 0.769642C82.2177 0.785559 81.945 0.742095 81.6911 0.642276C81.5893 0.602138 81.4832 0.573882 81.3749 0.558072C80.969 0.460739 80.5627 0.364192 80.1561 0.268431C80.105 0.268431 80.0539 0.263007 80.0018 0.263714C79.9251 0.263714 79.8484 0.238241 79.7708 0.231165L79.2767 0.188709C79.1401 0.202683 79.0024 0.201576 78.866 0.185407C78.7258 0.164494 78.5853 0.145153 78.4445 0.127385L78.4152 0.125026C77.972 0.141809 77.5282 0.12786 77.087 0.0832783C77.0723 0.0809197 77.0577 0.0802121 77.0428 0.0778535H77.0366C76.9599 0.0763573 76.8832 0.0710043 76.807 0.0618147C76.7427 0.0618147 76.6792 0.0601637 76.6149 0.0587485C76.4396 0.0696898 76.2637 0.0670875 76.0888 0.050965C75.8819 0.0478988 75.6751 0.0462477 75.468 0.050965C75.0334 0.0981911 74.5961 0.115214 74.1592 0.101912C73.7332 0.0502574 73.3162 0.223853 72.8999 0.0910618C72.34 0.187527 71.767 0.17993 71.2099 0.0686548C71.199 0.0670037 71.1881 0.0686548 71.1772 0.0670037C70.9595 0.0476629 70.7417 0.0122833 70.524 0.0122833C70.0339 -0.0197502 69.5418 -0.0039508 69.0548 0.0594561C68.5523 0.162847 68.0423 0.225321 67.5297 0.24626C67.3798 0.252786 67.2305 0.268541 67.0826 0.293433L67.068 0.295792C66.7767 0.336644 66.4827 0.355488 66.1885 0.352163C66.015 0.366938 65.8441 0.404041 65.6802 0.462547C65.4171 0.572435 65.1438 0.656027 64.8641 0.712091C64.4883 0.729724 64.118 0.809429 63.7684 0.947955C63.5126 1.05874 63.2265 1.07864 62.9578 1.00433C62.7866 0.965332 62.6089 0.964044 62.4371 1.00055C61.9086 1.11023 61.3856 1.24845 60.8595 1.36897C60.2366 1.51049 59.612 1.64399 58.9898 1.78362C58.9354 1.79311 58.885 1.81838 58.845 1.85627C58.784 1.92032 58.7101 1.97069 58.628 2.004C58.546 2.03731 58.4578 2.0528 58.3693 2.04944C58.2934 2.05797 58.2192 2.07777 58.1492 2.10817C57.5734 2.33059 56.9999 2.55631 56.4234 2.77614C56.2071 2.85798 55.9872 2.93063 55.7648 2.99549C55.4211 3.11293 55.0695 3.20586 54.7125 3.27357C54.3555 3.33963 54.0161 3.47899 53.7159 3.6828C53.5369 3.78674 53.3527 3.88168 53.164 3.96725C52.775 4.14957 52.379 4.31562 51.994 4.50407C51.581 4.70644 51.1772 4.92721 50.7687 5.14091C50.7588 5.14514 50.7484 5.14822 50.7377 5.1501C50.2641 5.25675 49.8275 5.48676 49.4723 5.81666C49.3668 5.8941 49.2536 5.96034 49.1343 6.01431C49.0243 6.08224 48.9149 6.15253 48.8113 6.22895C48.6981 6.31244 48.5942 6.40962 48.4799 6.49075C48.345 6.5851 48.2033 6.66907 48.0639 6.75634C47.8305 6.90234 47.5905 7.03749 47.3657 7.1941C47.024 7.43279 46.6931 7.68611 46.3575 7.93306C46.2962 7.97858 46.2413 8.03425 46.1786 8.07741C45.9097 8.26209 45.6342 8.43875 45.3704 8.62886C45.0961 8.8251 44.8248 9.02723 44.5614 9.23904C44.298 9.45085 44.0446 9.68223 43.7804 9.8971C43.6455 10.0068 43.4964 10.0988 43.3518 10.1952C43.2451 10.2515 43.1423 10.315 43.0442 10.3851C42.7062 10.6809 42.3763 10.9868 42.0414 11.287C42.0076 11.3152 41.9721 11.3413 41.9351 11.3651C41.7221 11.518 41.5051 11.6663 41.2961 11.8262C40.9823 12.0673 40.6692 12.3098 40.3646 12.5631C39.9516 12.9084 39.554 13.2707 39.1373 13.6117C38.8746 13.8273 38.7042 14.1292 38.3979 14.3106C38.1487 14.4711 37.9253 14.6682 37.7353 14.8953C37.416 15.2529 37.1611 15.6692 36.7543 15.9456C36.7287 15.9633 36.7178 16.0003 36.6977 16.0267C36.5978 16.1572 36.5025 16.2923 36.3941 16.4159C36.0015 16.8155 35.6718 17.272 35.4162 17.7698C35.3956 17.821 35.3603 17.8651 35.3146 17.8964C35.1378 18.0287 34.999 18.205 34.9123 18.4078C34.7822 18.6714 34.6135 18.9143 34.4118 19.1286C34.0778 19.4236 33.9817 19.8668 33.6741 20.1664C33.6608 20.1803 33.6639 20.2095 33.6539 20.2282C33.5823 20.3732 33.5011 20.5133 33.4107 20.6475C33.1953 20.9306 32.9626 21.1912 33.032 21.5943C33.0316 21.6467 33.0186 21.6983 32.9942 21.7448C32.9698 21.7913 32.9347 21.8313 32.8916 21.8615C32.6894 21.9975 32.5384 22.1966 32.4623 22.4276C32.3889 22.5992 32.2995 22.7636 32.1954 22.9187C31.8336 23.4073 31.5651 23.9581 31.4035 24.5435C31.2872 24.9227 31.1162 25.283 30.8958 25.6132C30.5991 26.1151 30.29 26.6118 30.0242 27.13C29.784 27.5987 29.5982 28.0971 29.3826 28.578C29.167 29.0589 28.9369 29.5339 28.7277 30.0191C28.6458 30.2095 28.5866 30.4089 28.5512 30.613C28.5166 30.8306 28.4375 31.0388 28.3188 31.2246C28.2235 31.3968 28.1471 31.5786 28.0909 31.7671C28.052 31.8697 28.035 31.9794 28.0064 32.086C27.8691 32.5855 27.7224 33.083 27.5965 33.5858C27.5449 33.9467 27.4469 34.2995 27.3051 34.6354C27.2559 34.7462 27.2255 34.8645 27.2152 34.9852C27.175 35.2362 27.1454 35.4879 27.1089 35.74C27.0098 36.4181 26.8874 37.0938 26.8138 37.7757C26.7116 38.7225 26.6318 39.6723 26.5667 40.6231C26.5109 41.4394 26.4893 42.2588 26.4519 43.0772C26.4 43.7277 26.4094 44.3815 26.4799 45.0302C26.4853 45.1521 26.4814 45.2742 26.4683 45.3955C26.4628 45.8713 26.4567 46.3477 26.456 46.8235C26.456 47.09 26.4512 47.357 26.473 47.6221C26.5357 48.3943 26.6103 49.1665 26.6829 49.939C26.6993 50.1152 26.7248 50.2904 26.7527 50.4657C26.8216 50.8928 26.8962 51.319 26.9657 51.7462C27.0153 52.042 27.0631 52.338 27.1092 52.6342C27.2261 53.389 27.4308 54.1256 27.5198 54.8884C27.6177 55.8617 27.786 56.8266 28.0234 57.7758C28.2139 58.494 28.3263 59.2323 28.5076 59.9535C28.5897 60.2288 28.5643 60.5247 28.4366 60.7821C28.3649 60.9164 28.3318 61.0678 28.3409 61.2196C28.3501 61.3714 28.4011 61.5178 28.4885 61.6426C28.6305 61.8527 28.7699 62.065 28.9145 62.2735C29.0181 62.3889 29.1085 62.5155 29.184 62.6509C29.3095 62.9698 29.4846 63.2611 29.5864 63.5976C29.7894 64.2665 30.0784 64.9097 30.3326 65.5638C30.3496 65.6051 30.3691 65.6453 30.3908 65.6843C30.5775 66.0381 30.7673 66.3893 30.9519 66.7457C31.0807 66.966 31.1924 67.1957 31.2859 67.433C31.5043 68.084 31.8832 68.6517 32.1956 69.2532C32.4676 69.7776 32.7419 70.3009 33.0185 70.8231C33.0859 70.9497 33.1688 71.0686 33.244 71.1915C33.4067 71.4565 33.5691 71.7209 33.7313 71.9847C33.8942 72.2512 34.0421 72.5291 34.225 72.781C34.4002 73.022 34.6458 73.2119 34.722 73.5216C34.7343 73.5718 34.7854 73.6119 34.8181 73.6575C35.042 73.9773 35.2645 74.2985 35.4907 74.6167C35.8511 75.1936 36.2471 75.7476 36.6764 76.2755C36.932 76.555 37.1746 76.8494 37.4039 77.1513C37.8162 77.6938 38.1849 78.275 38.7693 78.6608C38.8137 78.6951 38.852 78.7366 38.8824 78.7837C39.0916 79.0609 39.2954 79.343 39.5093 79.617C39.7898 79.9762 40.0276 80.3777 40.447 80.6055C40.5004 80.6463 40.5493 80.6926 40.5928 80.7438C40.8006 80.9298 40.9989 81.1284 41.2204 81.2959C41.4196 81.4211 41.5892 81.5879 41.7174 81.7849C41.7952 81.894 41.8966 81.9843 42.0142 82.049C42.3093 82.2443 42.6489 82.3865 42.7822 82.7611C42.7992 82.8083 42.8574 82.8422 42.9005 82.879C43.3523 83.2614 43.8181 83.6295 44.2535 84.0305C44.5652 84.3326 44.9207 84.5861 45.3081 84.7827C45.3662 84.8171 45.417 84.8624 45.4577 84.9162C45.6739 85.1584 45.9212 85.3714 46.193 85.5495C46.5828 85.8113 46.9447 86.1193 47.3453 86.3627C47.8707 86.6617 48.3688 87.0059 48.834 87.3913C48.9775 87.4972 49.1315 87.5883 49.2936 87.6631C49.4694 87.7605 49.6547 87.8423 49.8228 87.951C50.1522 88.165 50.4667 88.4013 50.7983 88.6115C51.3643 88.9741 51.9751 89.262 52.6154 89.4679C52.9124 89.5646 53.2019 89.6829 53.4816 89.8217C53.8729 90.0149 54.2456 90.2462 54.6378 90.4387C54.9691 90.6 55.3111 90.7399 55.6568 90.8689C56.0327 91.0104 56.4194 91.1229 56.799 91.2543C57.2655 91.4149 57.7282 91.5845 58.1953 91.7416C58.3134 91.7757 58.4342 91.7994 58.5565 91.8124C59.0734 91.8895 59.6087 91.8803 60.0823 92.1645C60.1321 92.1903 60.1861 92.2073 60.2418 92.2148C60.9563 92.3499 61.6708 92.4865 62.3867 92.6157C62.816 92.6928 63.2531 92.7322 63.6304 92.9931C63.6974 93.0344 63.7724 93.061 63.8505 93.0712C64.1489 93.1183 64.4478 93.1669 64.7479 93.1995C65.5159 93.283 66.2863 93.3509 67.054 93.4389C67.8217 93.5269 68.5876 93.6351 69.3546 93.7262C69.6327 93.7594 69.9141 93.7578 70.1922 93.7917C70.8602 93.8704 71.5355 93.8651 72.2022 93.7762C72.5559 93.7153 72.917 93.7096 73.2724 93.7592C73.4168 93.7714 73.5622 93.7644 73.7048 93.7384C74.0148 93.7082 74.3232 93.6613 74.634 93.6441C75.0238 93.6205 75.415 93.6247 75.8064 93.6108C76.2977 93.5938 76.7891 93.5707 77.1663 93.5552C77.597 93.6424 77.9071 93.6832 78.1582 93.4162C78.2043 93.3843 78.2593 93.3673 78.3155 93.3677C78.7255 93.3151 79.1361 93.2665 79.5462 93.2139C79.6896 93.1952 79.8338 93.1745 79.9755 93.1431C80.5199 93.0219 81.0597 92.8891 81.6052 92.7747C81.9647 92.699 82.3289 92.648 82.6908 92.5832C82.7341 92.5754 82.7722 92.5461 82.8148 92.536C83.2425 92.4334 83.6704 92.3313 84.0997 92.2341C84.1974 92.2117 84.3191 92.2419 84.3965 92.194C84.7607 91.9716 85.2459 92.089 85.5798 91.7777C85.6271 91.7329 85.7294 91.7461 85.806 91.7291C85.895 91.7217 85.982 91.6992 86.0633 91.6626C86.2418 91.5694 86.4415 91.5241 86.6429 91.5312C86.7832 91.5129 86.9198 91.4725 87.0474 91.4114C87.3938 91.2661 87.7337 91.1071 88.0804 90.9604C88.1438 90.9374 88.2117 90.9293 88.2787 90.9368C88.4466 90.9353 88.6095 90.8795 88.7428 90.7779C88.9347 90.6666 89.1375 90.5753 89.348 90.5052C89.7255 90.3717 90.1098 90.258 90.4894 90.129C90.5498 90.109 90.5957 90.0486 90.6551 90.017C90.8809 89.856 91.1296 89.7296 91.3928 89.6417C91.9845 89.5327 92.4699 89.2124 92.9875 88.9577C93.457 88.7268 93.8918 88.4273 94.4131 88.3098C94.4787 88.2959 94.538 88.2612 94.5821 88.211C94.8517 87.8933 95.2142 87.6675 95.619 87.5654C96.2606 87.3661 96.7481 86.8896 97.3866 86.7059C97.4584 86.6739 97.5241 86.6301 97.5812 86.5762C97.7942 86.4163 98.0012 86.2495 98.218 86.0967C98.3224 86.0129 98.4414 85.9489 98.569 85.908C98.8243 85.8613 99.0536 85.7231 99.2137 85.5195C99.257 85.4615 99.3422 85.436 99.4066 85.3929C99.563 85.2886 99.7204 85.1851 99.8747 85.077C100.01 84.9813 100.135 84.8662 100.277 84.7829C100.692 84.5649 101.076 84.2927 101.418 83.9737C101.645 83.7451 101.92 83.5652 102.164 83.3536C102.928 82.6901 103.694 82.0276 104.448 81.3525C104.745 81.086 105.013 80.7864 105.297 80.5053C105.581 80.2241 105.887 79.9628 106.142 79.6562C106.31 79.3938 106.531 79.1684 106.789 78.9936C106.843 78.9658 106.869 78.8894 106.911 78.8377C107.031 78.6924 107.151 78.5481 107.273 78.4045C107.429 78.2176 107.586 78.0306 107.746 77.8462C107.957 77.602 108.171 77.3619 108.382 77.1188C108.455 77.0346 108.527 76.9496 108.595 76.8617C108.729 76.6855 108.851 76.501 108.993 76.3312C109.25 76.0246 109.523 75.7312 109.776 75.4222C109.987 75.1642 110.171 74.8847 110.382 74.6276C110.706 74.2337 111.046 73.853 111.374 73.4622C111.553 73.2482 111.719 73.0244 111.895 72.8088C112.282 72.3347 112.709 71.8875 113.054 71.384C113.558 70.6502 113.991 69.8681 114.479 69.1227C114.896 68.4859 115.083 67.7373 115.488 67.0943C115.808 66.5863 115.952 65.9876 116.269 65.4687C116.501 65.037 116.702 64.5895 116.871 64.1295C116.951 63.9597 117.014 63.7825 117.06 63.6005C117.1 63.4144 117.093 63.2259 117.287 63.1051C117.345 63.0688 117.366 62.9499 117.375 62.8657C117.397 62.6424 117.475 62.4283 117.602 62.2433C117.665 62.1386 117.717 62.028 117.757 61.9131C117.843 61.7087 117.927 61.5035 118.008 61.2977C118.065 61.1524 118.115 61.0043 118.167 60.8576C118.205 60.7541 118.245 60.6505 118.279 60.5456C118.333 60.3779 118.389 60.2097 118.435 60.0396C118.52 59.7276 118.59 59.4118 118.682 59.1028C118.768 58.8148 118.879 58.5336 118.97 58.2471C119.072 57.9282 119.167 57.606 119.26 57.2847C119.346 56.9842 119.449 56.6871 119.505 56.3811C119.585 55.9441 119.55 55.4849 119.755 55.0714C119.774 55.0071 119.785 54.9407 119.786 54.8737C119.892 54.3277 119.887 53.7562 120.149 53.2463C120.179 53.1739 120.196 53.0968 120.199 53.0184C120.284 52.1851 120.383 51.3535 120.443 50.5183C120.508 49.6371 120.541 48.7528 120.576 47.8693C120.598 47.5788 120.586 47.2868 120.541 46.9989M103.45 76.5343C103.21 76.8029 102.263 77.4563 102.022 77.7245C101.68 78.1051 101.342 78.4898 101.001 78.8729C100.974 78.9073 100.943 78.9382 100.908 78.9649C100.335 79.3571 99.9466 79.9456 99.3964 80.3612C99.284 80.4454 99.1597 80.5126 99.0438 80.5921C98.959 80.6395 98.882 80.6994 98.8151 80.7697C98.6463 80.9848 98.4309 81.1593 98.1851 81.2801C97.9622 81.3971 97.7651 81.5575 97.6055 81.7518C97.5088 81.8345 97.4001 81.9021 97.2832 81.9526C97.1847 82.0136 97.0375 82.0552 96.9992 82.1424C96.8241 82.554 96.4669 82.7101 96.084 82.8135C95.9046 82.8543 95.7442 82.954 95.6284 83.0965C95.5235 83.2045 95.4059 83.2996 95.2782 83.3795C95.0938 83.5123 94.9071 83.6437 94.7156 83.7673C94.5618 83.8706 94.4022 83.9651 94.2375 84.0503C93.8378 84.2496 93.506 84.5678 93.0573 84.6843C92.9143 84.7379 92.7861 84.8245 92.6831 84.9369C92.553 85.071 92.3801 85.1556 92.1941 85.1763C91.977 85.2011 91.7687 85.2762 91.5859 85.3957C91.2562 85.6285 90.8938 85.8113 90.5103 85.9382C90.0997 86.0408 89.7633 86.2995 89.3534 86.38C89.2884 86.3915 89.2263 86.4156 89.1705 86.4507C88.735 86.7363 88.2238 86.8321 87.7531 87.0314C87.3896 87.1852 87 87.26 86.6408 87.4005C86.2122 87.5689 85.759 87.6329 85.3391 87.7914C84.7327 88.0067 84.1152 88.1898 83.4893 88.3397C82.9104 88.4919 82.3308 88.6409 81.752 88.7907C81.7094 88.8016 81.666 88.8093 81.6234 88.8178C81.1624 88.9089 80.7052 89.0256 80.2404 89.0844C79.6877 89.1551 79.128 89.1754 78.5728 89.2179C78.2914 89.1847 78.0064 89.236 77.7544 89.3653C77.551 89.4428 77.3319 89.4708 77.1154 89.4471C76.0878 89.4787 75.0588 89.4926 74.0321 89.532C73.3892 89.5797 72.743 89.56 72.1042 89.4733C71.9737 89.4568 71.8422 89.4495 71.7107 89.4516C71.066 89.4339 70.4203 89.4214 69.7757 89.3976C69.6696 89.3805 69.5656 89.352 69.4656 89.3127C69.3179 89.2508 69.1613 89.2125 69.0015 89.1992C68.3009 89.2206 67.6008 89.1389 66.9241 88.9568C66.8183 88.9279 66.7102 88.908 66.601 88.8973C65.8051 88.8572 65.0412 88.6162 64.2531 88.5199C63.8799 88.4449 63.5131 88.3414 63.1559 88.2103C63.0317 88.1674 62.9035 88.1376 62.7732 88.1213C62.5299 88.1252 62.2938 88.0391 62.1105 87.8796C62.0573 87.8416 61.9961 87.8163 61.9316 87.8055C61.3636 87.6432 60.798 87.4753 60.2276 87.3267C59.9008 87.2482 59.5821 87.1391 59.276 87.0007C58.9591 86.8819 58.632 86.7923 58.2988 86.7328C58.1906 86.7185 58.0847 86.691 57.9833 86.651C57.709 86.4988 57.4479 86.3236 57.1758 86.1674C57.0519 86.1019 56.9237 86.0449 56.7921 85.9967C56.4286 85.85 56.0637 85.7063 55.7004 85.5589C55.5787 85.5094 55.4578 85.4584 55.3416 85.3976C55.1307 85.2862 54.9239 85.1667 54.7147 85.0509C54.6479 85.0145 54.5807 84.9782 54.5116 84.9466C54.2155 84.8122 53.9199 84.678 53.6213 84.5456C53.4639 84.4749 53.2989 84.419 53.1456 84.3419C53.0116 84.2739 52.889 84.1836 52.7596 84.106C52.5939 84.0072 52.4263 83.909 52.2567 83.8149C52.2093 83.7888 52.1364 83.7932 52.1071 83.7579C51.8536 83.4512 51.4818 83.3269 51.15 83.147C50.8478 82.9819 50.5162 82.8736 50.2062 82.7208C50.0791 82.6637 49.9703 82.5729 49.8916 82.4582C49.7353 82.2059 49.4964 82.0149 49.2153 81.9176C49.0995 81.8844 48.9938 81.8232 48.9076 81.7393C48.6163 81.362 48.1266 81.2358 47.8319 80.8574C47.6729 80.709 47.4983 80.578 47.3113 80.4666C46.7961 80.0987 46.3162 79.684 45.8778 79.2279C45.7813 79.1241 45.6701 79.0351 45.5476 78.9637C45.3107 78.8256 45.113 78.6294 44.9735 78.3938C44.873 78.2097 44.709 78.0682 44.5117 77.9955C44.4203 77.961 44.3397 77.9029 44.2784 77.8271C43.9491 77.4203 43.5795 77.0477 43.175 76.715C42.9769 76.527 42.7948 76.3229 42.6307 76.1048C42.4082 75.8217 42.2123 75.5187 41.9898 75.2351C41.5247 74.6161 41.0083 74.0369 40.4463 73.5037C40.3662 73.431 40.2947 73.3494 40.2333 73.2605C40.0728 73.0272 39.9256 72.7855 39.7637 72.5529C39.498 72.1685 39.2073 71.7981 38.9591 71.4038C38.6035 70.9084 38.2885 70.3852 38.0174 69.8393C37.9844 69.7461 37.9318 69.661 37.8631 69.5897C37.6823 69.3879 37.527 69.1649 37.4004 68.9256C37.1839 68.5982 37.006 68.247 36.8702 67.879C36.8175 67.7477 36.737 67.6288 36.6743 67.5016C36.5574 67.2658 36.6371 67.1372 36.8927 67.158C37.1537 67.1714 37.4076 67.2474 37.6328 67.3797C37.9628 67.5464 38.3037 67.6906 38.6533 67.8113C39.3574 68.0763 40.0789 68.2925 40.8129 68.4585C41.0238 68.5175 41.2399 68.5558 41.4583 68.5729C42.1971 68.6609 42.9417 68.6912 43.6853 68.6633C44.1208 68.6317 44.561 68.6362 44.9988 68.6477C45.7088 68.6663 46.3842 68.4701 47.0732 68.3503C47.7474 68.2012 48.3954 67.9524 48.9956 67.612C49.5783 67.3186 50.1494 67.0011 50.7252 66.6945C50.7446 66.6837 50.7694 66.6782 50.7825 66.662C51.0809 66.282 51.5829 66.1886 51.9215 65.8504C52.1427 65.6741 52.3854 65.5265 52.6438 65.411C53.1069 65.1023 53.5337 64.7427 53.9162 64.339C54.1085 64.1786 54.3101 64.0295 54.5199 63.8927C54.6517 63.7969 54.7888 63.7066 54.9158 63.6038C55.569 63.0733 56.1091 62.4268 56.7112 61.8437C56.7618 61.7864 56.8164 61.7327 56.8747 61.6831C57.4274 61.2822 57.7518 60.6963 58.1463 60.1649C58.4363 59.7733 58.7733 59.4165 59.066 59.0266C59.492 58.4574 60.0115 57.9485 60.2825 57.2713C60.3026 57.221 60.3152 57.1548 60.3535 57.126C60.6247 56.926 60.7045 56.6163 60.8425 56.3344C60.9847 56.0776 61.1415 55.8291 61.312 55.59C61.3357 55.553 61.3754 55.5205 61.383 55.4811C61.4675 55.0603 61.8116 54.7829 61.9796 54.4053C62.1074 54.1197 62.3252 53.8748 62.4686 53.5944C62.7715 53.0029 63.0707 52.4073 63.3372 51.7988C63.5629 51.2202 63.8577 50.6707 64.2152 50.1624C64.2302 50.1462 64.2411 50.1266 64.2469 50.1053C64.2942 49.7043 64.5832 49.4024 64.698 49.0278C64.744 48.906 64.8032 48.7895 64.8745 48.6804C64.9754 48.5005 65.0994 48.3306 65.1822 48.1429C65.3225 47.8247 65.4309 47.4919 65.5666 47.1714C65.6634 46.9412 65.7982 46.7272 65.8896 46.4963C66.1026 45.9595 66.3267 45.4253 66.4988 44.8745C66.7257 44.1485 66.9025 43.4065 67.1117 42.6744C67.2194 42.297 67.3605 41.9283 67.4667 41.5507C67.5472 41.2677 67.5851 40.9755 67.6627 40.6927C67.7455 40.3908 67.8433 40.0919 67.9517 39.7983C68.0423 39.5534 68.1547 39.3157 68.2655 39.0784C68.301 38.9765 68.3609 38.8848 68.4399 38.8112C68.7323 38.5655 69.0681 38.3764 69.4301 38.2536C69.4633 38.251 69.4956 38.2416 69.5248 38.2258C69.9943 37.8319 70.608 37.8828 71.1481 37.7069C71.5812 37.5653 72.0292 37.4691 72.4715 37.3561C72.5982 37.3211 72.7276 37.2964 72.8583 37.2821C73.4585 37.2253 74.0453 37.0711 74.5956 36.8257C74.8091 36.743 75.0337 36.6923 75.2621 36.6752C75.4791 36.6516 75.5333 36.7129 75.5534 36.9261C75.5913 37.3163 75.6658 37.7078 75.4853 38.0854C75.4717 38.1269 75.4637 38.1701 75.4616 38.2137C75.3137 39.1612 75.1672 40.1089 75.0159 41.0557C74.9958 41.1846 74.9642 41.3116 74.9213 41.4349C74.8051 41.7189 74.7476 42.0234 74.7523 42.33C74.7606 42.3952 74.751 42.4614 74.7244 42.5215C74.5431 42.835 74.6011 43.1765 74.5857 43.5122C74.5594 44.0782 74.5175 44.6427 74.478 45.2073C74.4739 45.2839 74.4547 45.3589 74.4214 45.4281C74.2384 45.8251 74.1559 46.2608 74.1812 46.697C74.1642 46.8122 74.1306 46.9243 74.0813 47.0298C74.022 47.1657 73.9778 47.3076 73.9495 47.453C73.9237 47.692 73.9249 47.9332 73.9533 48.1719C74.0262 48.7087 73.9206 49.2385 73.9162 49.7713C73.9138 50.0654 73.8882 50.3598 73.8728 50.6539C73.8768 50.7407 73.8713 50.8277 73.8565 50.9133C73.6265 51.7674 73.6868 52.6448 73.6395 53.5135C73.6158 53.9381 73.586 54.3626 73.5652 54.7872C73.5505 55.0702 73.5458 55.3532 73.5373 55.6363C73.5429 55.7453 73.5393 55.8546 73.5264 55.963C73.4477 56.4485 73.437 56.9425 73.4946 57.431C73.5465 58.1051 73.6116 58.7778 73.6766 59.4504C73.6944 59.5576 73.7206 59.6632 73.755 59.7663C73.7928 59.9137 73.8293 60.0613 73.8698 60.2073C73.924 60.4059 73.9812 60.6026 74.0387 60.8005C74.0696 60.8811 74.095 60.9637 74.1147 61.0477C74.159 61.3489 74.1836 61.6532 74.2371 61.9527C74.2749 62.165 74.3495 62.3704 74.4075 62.5789C74.4279 62.6295 74.443 62.6821 74.4524 62.7358C74.5076 63.5868 74.9414 64.3366 75.1042 65.16C75.1613 65.371 75.2521 65.5716 75.3731 65.7539C75.6512 66.2334 75.9441 66.7054 76.2317 67.1802C76.2651 67.2358 76.31 67.2851 76.338 67.3431C76.4984 67.6767 76.6549 68.0111 76.8137 68.3456C76.8249 68.3764 76.8408 68.4053 76.861 68.4312C77.0889 68.6628 77.3206 68.8906 77.5473 69.1239C77.6976 69.2784 77.8417 69.439 77.9859 69.5989C78.0448 69.6638 78.0921 69.7388 78.1532 69.8006C78.3899 70.0393 78.6289 70.2771 78.8708 70.511C79.2381 70.867 79.6061 71.2224 79.9796 71.5724C80.0896 71.676 80.2174 71.7611 80.3367 71.8519C80.4141 71.9121 80.4962 71.9677 80.5698 72.0326C80.9279 72.3508 81.2843 72.672 81.6431 72.9909C81.6808 73.0305 81.7258 73.0625 81.7756 73.0853C82.1581 73.2452 82.5028 73.483 82.7876 73.7834C82.886 73.8859 83.004 73.9675 83.1348 74.0235C83.7445 74.2599 84.3369 74.5383 84.9077 74.8568C85.3439 75.0839 85.8001 75.2706 86.2706 75.4144C86.6188 75.5021 86.9605 75.6133 87.2935 75.7472C87.4422 75.7809 87.5942 75.7977 87.7467 75.7974C87.9834 75.8361 88.2155 75.8878 88.4503 75.9343C88.8463 76.013 89.2408 76.0979 89.6374 76.1701C90.0682 76.2472 90.4999 76.3161 90.933 76.3824C91.105 76.4086 91.2809 76.4126 91.4536 76.435C91.6792 76.4642 91.9033 76.5046 92.1293 76.5369C92.2369 76.5561 92.3456 76.5685 92.4547 76.5739C92.9044 76.58 93.3522 76.581 93.8006 76.5817C94.1383 76.5833 94.4743 76.5325 94.7963 76.4312C95.1588 76.3523 95.528 76.3079 95.8989 76.2984C96.1477 76.2706 96.3959 76.2397 96.6428 76.2088C96.6754 76.205 96.7062 76.188 96.7389 76.1852C97.2813 76.1481 97.824 76.1121 98.3669 76.0772C98.3887 76.0755 98.4111 76.0833 98.4327 76.0803C99.2833 75.9553 100.145 75.9283 101.002 75.9998C101.542 76.0663 102.443 75.8385 102.99 75.8515C103.067 75.8503 103.143 75.8557 103.219 75.8677C103.606 75.9434 103.71 76.2439 103.45 76.5364M114.991 47.9889C114.988 48.2719 115.01 48.5549 114.997 48.838C114.976 49.2512 114.935 49.6635 114.898 50.076C114.864 50.4553 114.831 50.8336 114.787 51.2112C114.758 51.4584 114.706 51.7032 114.668 51.9488C114.634 52.1634 114.603 52.3784 114.574 52.5936C114.495 53.1651 114.421 53.7366 114.34 54.3081C114.278 54.7506 114.229 55.1962 114.136 55.6325C114.038 56.0896 113.892 56.5361 113.775 56.9894C113.724 57.1896 113.684 57.3926 113.657 57.5973C113.643 57.7933 113.58 57.9829 113.475 58.1487C113.402 58.2577 113.351 58.3797 113.326 58.5079C113.257 58.8268 113.216 59.1511 113.147 59.4702C113.108 59.6165 113.055 59.7587 112.989 59.8948C112.937 60.0146 112.851 60.121 112.811 60.2439C112.539 61.0718 112.312 61.9185 111.994 62.7275C111.79 63.2488 111.701 63.8271 111.327 64.2774C111.299 64.3108 111.281 64.3518 111.276 64.3953C111.238 65.0402 110.828 65.536 110.59 66.0997C110.348 66.6705 110.022 67.4719 109.764 68.0356C109.716 68.1328 109.661 68.226 109.598 68.3144C109.447 68.5406 109.284 68.7593 109.139 68.9902C108.899 69.3725 108.725 69.6435 108.31 69.4383C108.22 69.4012 108.124 69.3803 108.026 69.3765C107.75 69.3792 107.482 69.2855 107.269 69.1117C107.211 69.0567 107.108 69.0484 107.029 69.0135C106.481 68.7725 106.027 68.1224 105.493 67.8342C105.057 67.5892 104.681 67.2492 104.394 66.8396C104.219 66.6037 104.054 66.3624 103.877 66.1299C103.778 66.0008 103.661 65.8857 103.553 65.7638C103.469 65.6777 103.391 65.5866 103.318 65.4911C102.944 64.956 102.575 64.4161 102.2 63.8816C102.133 63.7965 102.058 63.7183 101.975 63.6483C101.872 63.5509 101.759 63.4646 101.66 63.3653C101.317 63.0155 100.991 62.6495 100.637 62.3112C100.164 61.8596 99.6728 61.4277 99.1893 60.9883C99.1531 60.9471 99.1102 60.9124 99.0622 60.8857C98.516 60.668 98.1648 60.2137 97.7589 59.8243C97.4749 59.5523 97.184 59.2875 96.9069 59.0096C96.6077 58.7091 96.3226 58.3949 96.0289 58.0897C95.9451 58.0032 95.8544 57.9246 95.7654 57.8442C95.7051 57.7975 95.6477 57.7473 95.5934 57.6937C95.2408 57.2798 94.9092 56.8472 94.5357 56.4543C94.3296 56.2373 94.1878 55.9839 94.0065 55.7577C93.6989 55.3771 93.341 55.0372 93.0085 54.6765C92.9063 54.5655 92.8147 54.4449 92.7245 54.3251C92.6455 54.2216 92.5695 54.1143 92.499 54.0046C92.1964 53.592 91.8597 53.2054 91.4924 52.8488C91.2662 52.6002 91.0934 52.3028 90.8594 52.0627C90.5047 51.6659 90.172 51.2501 89.8628 50.8171C89.7954 50.7189 89.7398 50.6131 89.6971 50.502C89.6599 50.388 89.5995 50.2828 89.5196 50.1931C89.4398 50.1034 89.3422 50.0311 89.233 49.9807C89.1408 49.9263 89.059 49.8562 88.9911 49.7736C88.8292 49.6192 88.6766 49.4555 88.5052 49.3135C88.584 49.4184 88.6197 49.5493 88.6051 49.6795C88.5928 49.8232 88.509 49.8779 88.3796 49.8154C88.337 49.7952 88.2958 49.7723 88.2563 49.7468C88.4462 50.0317 88.6538 50.3045 88.8777 50.5638C89.1886 50.9138 89.4606 51.2962 89.689 51.7044C89.9122 52.0759 90.1742 52.4233 90.4189 52.7819C90.4549 52.8228 90.4854 52.8682 90.5096 52.917C90.6718 53.2727 90.8709 53.6105 91.1038 53.9249C91.2783 54.2128 91.4534 54.5001 91.6415 54.7789C91.9506 55.237 92.3073 55.6669 92.5761 56.1469C92.8194 56.5795 93.1945 56.9052 93.4317 57.3371C93.5762 57.5925 93.7356 57.8392 93.909 58.0761C94.1128 58.3591 94.3367 58.6268 94.5438 58.907C94.66 59.0646 94.7608 59.2337 94.8678 59.3974C95.1769 59.8714 95.5141 60.3302 95.7868 60.8246C96.0549 61.3088 96.257 61.8294 96.4873 62.3341C96.7043 62.8106 96.9235 63.2856 97.136 63.7637C97.1833 63.8717 97.207 63.9908 97.246 64.1036C97.3043 64.2757 97.3644 64.4479 97.4242 64.6194C97.461 64.6975 97.4891 64.7793 97.508 64.8635C97.5305 65.0522 97.437 65.1701 97.2453 65.1484C97.019 65.1251 96.7903 65.1485 96.5734 65.2171C96.4455 65.2244 96.3176 65.2028 96.1993 65.1539C95.9676 65.0991 95.7375 65.038 95.5058 64.9831C95.4639 64.9729 95.4112 64.9916 95.3757 64.9739C94.8612 64.7321 94.2676 64.9031 93.7514 64.6588C93.6356 64.6264 93.5165 64.6067 93.3964 64.6001C93.2773 64.5915 93.162 64.5547 93.0601 64.4927C92.8846 64.3614 92.6679 64.2965 92.4488 64.3097C92.0465 64.2727 91.6441 64.2389 91.2477 64.1783C91.0679 64.1512 90.9022 64.0401 90.7223 64.0054C90.4334 63.9507 90.138 63.9283 89.8467 63.8903C89.7699 63.8892 89.6941 63.8732 89.6235 63.8432C89.1369 63.549 88.5689 63.491 88.0489 63.2948C87.9956 63.282 87.9442 63.262 87.8963 63.2353C87.4244 62.8761 86.8363 62.6662 86.4938 62.1409C86.4603 62.0978 86.4196 62.0607 86.3736 62.0313C86.1402 61.8526 85.9385 61.6362 85.7769 61.3911C85.5786 61.1081 85.3036 60.8784 85.0906 60.605C84.8602 60.3295 84.6592 60.0309 84.4909 59.7139C84.3958 59.4474 84.3288 59.1718 84.2909 58.8914C84.2606 58.7648 84.2199 58.6412 84.1863 58.5162C84.1298 58.3069 84.0746 58.097 84.0206 57.8867C83.9998 57.8025 83.9818 57.7175 83.9664 57.6326C83.9222 57.3871 83.8758 57.1423 83.837 56.8958C83.7842 56.563 83.7378 56.2285 83.6891 55.8957C83.666 55.7892 83.6512 55.681 83.6448 55.5721C83.6472 54.7534 83.5759 53.9395 83.5177 53.1232C83.4659 52.3957 83.5045 51.662 83.5045 50.9315C83.5045 50.4296 83.4728 49.9253 83.5191 49.4279C83.6152 48.403 83.5416 47.3775 83.5826 46.3534C83.6003 45.9177 83.6152 45.4807 83.6694 45.0484C83.7213 44.6283 83.8429 44.2167 83.8973 43.7983C83.9958 43.0315 84.0647 42.2607 84.1515 41.4922C84.1733 41.2984 84.2166 41.1068 84.2462 40.9139C84.2693 40.7856 84.2851 40.6562 84.2935 40.5261C84.2935 40.0999 84.368 39.6769 84.5136 39.2761C84.5374 39.2036 84.5561 39.1295 84.5695 39.0543C84.6973 38.5119 84.822 37.9717 84.9538 37.4311C84.9726 37.3352 85.0123 37.2446 85.07 37.1656C85.1673 37.0221 85.2377 36.8623 85.2778 36.6938C85.3806 36.3965 85.5121 36.11 85.6707 35.8381C85.9 35.4574 86.1868 35.1107 86.4145 34.7295C86.5692 34.4691 86.7585 34.2306 86.9771 34.0205C87.0666 33.9128 87.1192 33.7795 87.1274 33.6399C87.1432 33.4546 87.2265 33.2816 87.3614 33.1533C87.8061 32.7051 88.2555 32.2605 88.6811 31.7949C89.023 31.4423 89.3341 31.0613 89.6109 30.6559C89.9206 30.18 90.1155 29.6391 90.1806 29.0757C90.2439 28.6899 90.2489 28.2968 90.1953 27.9095C90.164 27.739 90.1104 27.5734 90.0358 27.4168C89.8722 27.0847 89.6855 26.7635 89.5134 26.4345C89.4262 26.2484 89.3005 26.0829 89.1445 25.9488C88.9792 25.7913 88.8467 25.6029 88.7547 25.3943C88.6411 25.2074 88.4752 25.0576 88.2773 24.9634C88.1867 24.9259 88.1037 24.8723 88.0324 24.8051C87.6661 24.3724 87.2076 24.0266 86.6902 23.7928C86.2694 23.5649 85.8548 23.3255 85.4302 23.1055C85.1699 22.9696 84.8932 22.8614 84.6256 22.7356C84.4863 22.6732 84.351 22.6023 84.2204 22.5234C83.482 22.0568 82.6489 21.9573 81.8064 21.8785C81.5676 21.8584 81.3324 21.8078 81.1066 21.728C80.742 21.6049 80.3461 21.6095 79.9845 21.7412C79.8811 21.7728 79.7751 21.7947 79.6676 21.8068C79.5463 21.8121 79.4288 21.8508 79.3282 21.9187C79.2277 21.9867 79.148 22.0811 79.0982 22.1915C78.8991 22.5458 78.7929 22.9445 78.7894 23.3505C78.7981 23.427 78.7857 23.5045 78.7536 23.5745C78.7216 23.6446 78.671 23.7046 78.6074 23.7482C78.5462 23.8073 78.494 23.8749 78.4523 23.9489C78.4206 23.9914 78.3996 24.0647 78.36 24.0756C78.1222 24.1411 78.0244 24.3374 77.899 24.5166C77.8732 24.55 77.8407 24.5777 77.8037 24.598C77.7666 24.6183 77.7257 24.6307 77.6836 24.6346C77.4519 24.6265 77.2254 24.704 77.0475 24.8523C76.9926 24.8891 76.9276 24.908 76.8615 24.9063C76.4355 24.9202 75.6225 25.3134 75.1963 25.3148C75.0559 25.301 74.9168 25.2762 74.7802 25.2407C75.0344 24.7735 75.6419 23.9836 75.8665 23.5765C76.1478 23.0845 76.3269 22.5411 76.3933 21.9788C76.4657 21.4141 76.4275 20.8408 76.2809 20.2907C76.2648 20.2053 76.2393 20.1219 76.205 20.0421C76.0751 19.8003 76.008 19.5301 76.0097 19.2559C76.0101 19.1795 75.9948 19.1038 75.9647 19.0335C75.7991 18.6783 75.6254 18.3259 75.455 17.9747C75.3613 17.803 75.277 17.6264 75.2024 17.4457C74.9941 16.9081 74.6957 16.4096 74.3199 15.9715C74.2399 15.8557 74.193 15.7204 74.1843 15.58C74.1687 15.4164 74.0894 15.2653 73.9635 15.1592C73.7147 14.9307 73.4762 14.6896 73.222 14.4681C73.0629 14.3349 72.9411 14.1627 72.8687 13.9686C72.7924 13.8017 72.7016 13.6417 72.5974 13.4905C72.3857 13.16 72.0853 12.8951 71.7303 12.7261C71.6506 12.6687 71.5603 12.6277 71.4645 12.6055C70.933 12.5819 70.5981 12.1722 70.1697 11.9515C70.0542 11.875 69.926 11.8196 69.7911 11.7878C69.7042 11.7769 69.6176 11.7642 69.5307 11.7545C69.236 11.7428 68.9448 11.6872 68.6666 11.5894C68.4277 11.5146 68.182 11.4634 67.933 11.4366C67.9111 11.4358 67.8893 11.433 67.8679 11.4281C67.4495 11.2413 67.0159 11.3045 66.58 11.3439C66.2289 11.3593 65.8792 11.2907 65.5602 11.1439C65.4624 11.0935 65.3535 11.0687 65.2435 11.0718C65.1335 11.0748 65.0261 11.1055 64.9313 11.1612C64.8365 11.2168 64.7574 11.2955 64.7013 11.3898C64.6453 11.4842 64.6142 11.5912 64.6109 11.7008C64.6033 11.8469 64.5499 11.987 64.4581 12.1013C64.3663 12.2155 64.2409 12.2982 64.0995 12.3376C63.6066 12.5467 63.0863 12.6845 62.5543 12.7468C62.5323 12.7487 62.511 12.7551 62.4915 12.7654C62.1304 12.9801 61.7105 12.9407 61.3222 13.0412C61.1246 13.0921 60.9385 13.1855 60.7457 13.2551C60.6008 13.3264 60.4463 13.3764 60.287 13.4035C60.0344 13.3878 59.785 13.4657 59.5865 13.6221C59.5011 13.6806 59.4087 13.7282 59.3115 13.7636C59.3353 13.8368 59.3768 13.9031 59.4321 13.9567C59.4874 14.0104 59.555 14.0498 59.6291 14.0717C60.0328 14.2007 60.4349 14.3365 60.8448 14.4469C61.5075 14.6269 62.1465 14.9019 62.8425 14.9613C62.8755 14.9618 62.9079 14.9699 62.9372 14.9849C63.3277 15.2328 63.774 15.2111 64.2081 15.2514C64.4205 15.2664 64.622 15.3506 64.7817 15.491C64.9414 15.6314 65.0502 15.8202 65.0916 16.0284C65.4132 17.2549 65.3441 18.4934 65.2411 19.7345C65.2182 19.8852 65.1838 20.0339 65.1382 20.1793C65.0963 20.3492 65.0537 20.5183 65.0118 20.6874C64.9235 21.0457 64.8397 21.4056 64.746 21.7632C64.6492 22.1309 64.546 22.4977 64.4407 22.8628C64.4096 22.9894 64.3639 23.112 64.3044 23.2281C64.231 23.3369 64.2027 23.4698 64.2254 23.5989C64.2347 23.6353 64.2366 23.6732 64.231 23.7103C64.2254 23.7475 64.2124 23.7831 64.1927 23.8152C63.9518 24.0692 63.9369 24.4129 63.8169 24.7134C63.6595 25.1072 63.5154 25.5066 63.3798 25.9073C63.3141 26.1151 63.2608 26.3266 63.22 26.5406C63.1905 26.7793 63.0953 27.0051 62.945 27.1932C62.8683 27.2781 62.8676 27.431 62.8312 27.5522C62.7923 27.685 62.7623 27.8218 62.7112 27.9499C62.5997 28.148 62.5106 28.3578 62.4454 28.5754C62.3671 29.0749 62.0092 29.3066 61.6116 29.4542C61.1025 29.6429 60.5632 29.75 60.0371 29.8913C60.0262 29.8943 60.0153 29.8943 60.0054 29.8981C59.4934 30.085 58.9645 30.222 58.4261 30.3073C58.1445 30.3884 57.8697 30.4909 57.6039 30.614C57.4266 30.6712 57.2444 30.712 57.0596 30.7359C56.4561 30.8396 55.8634 30.9981 55.2888 31.2093C55.206 31.2371 55.1246 31.2704 55.0401 31.2918C54.6005 31.3714 54.168 31.4857 53.7467 31.6338C53.3886 31.7897 53.0097 31.8138 52.658 31.9374C52.0305 32.1634 51.3813 32.3247 50.7207 32.4186C50.6661 32.4215 50.6126 32.4351 50.5633 32.4587C50.1534 32.7181 49.6853 32.769 49.2235 32.8455C49.1059 32.8696 48.9897 32.9005 48.8756 32.9382C48.7748 32.9807 48.6702 33.0138 48.5632 33.037C47.9952 33.0927 47.463 33.3049 46.9089 33.4238C46.4349 33.5014 45.9695 33.6248 45.5195 33.7922C44.9739 34.0281 44.4152 34.0238 43.8526 34.0378C43.0427 34.0571 42.2324 34.0479 41.4225 34.054C41.094 34.0564 41.0521 34.0896 41.0862 34.4133C41.1077 34.6727 41.1616 34.9285 41.2467 35.1746C41.3887 35.5858 41.5668 35.9838 41.7789 36.3638C41.9896 36.7345 42.2864 37.0494 42.6444 37.2821C43.1116 37.5778 43.5438 37.9269 44.0121 38.221C44.2372 38.354 44.4824 38.4496 44.7382 38.5041C45.0522 38.5541 45.3494 38.6789 45.6047 38.8678C45.6477 38.9025 45.6955 38.9308 45.7467 38.952C46.1944 39.1489 46.6448 39.3428 47.0926 39.5405C47.4514 39.6987 47.8054 39.8688 48.1673 40.0209C48.5159 40.1669 48.8716 40.2973 49.225 40.4318C49.3105 40.449 49.3941 40.4748 49.4744 40.5089C49.8472 40.7507 50.2826 40.8349 50.6833 41.0042C50.7739 41.0429 50.8537 41.1031 50.9436 41.1424C51.047 41.201 51.1601 41.2404 51.2776 41.259C51.5077 41.2665 51.7329 41.3279 51.9348 41.4382C52.0129 41.4785 52.096 41.5084 52.1819 41.5271C52.6592 41.6415 53.1451 41.7295 53.6146 41.8694C54.6392 42.176 55.6216 41.8979 56.6468 41.7111C56.7031 41.7706 56.7418 41.8444 56.7585 41.9244C56.7752 42.0045 56.7693 42.0876 56.7415 42.1644C56.6338 42.5079 56.4795 42.835 56.2828 43.1367C56.0828 43.5214 55.8753 43.9021 55.6566 44.2757C55.5203 44.5115 55.3598 44.7314 55.2069 44.9568C55.1643 45.02 55.1085 45.0748 55.0706 45.1406C54.7452 45.7067 54.4252 46.2751 54.0975 46.8388C54.0265 46.96 53.927 47.0643 53.8456 47.1794C53.5427 47.6065 53.2739 48.0535 53.0064 48.5038C52.726 48.9187 52.4221 49.3174 52.096 49.6977C51.9565 49.8506 51.8403 50.0232 51.7511 50.2098C51.5986 50.5599 51.3897 50.8828 51.1327 51.1657C50.8367 51.5419 50.5477 51.924 50.2547 52.3033C50.2152 52.3549 50.1787 52.4231 50.1245 52.4486C49.8953 52.5799 49.7144 52.781 49.6084 53.0224C49.1754 53.7167 48.6431 54.3444 48.0284 54.8855C47.8916 55.0269 47.7642 55.1771 47.6471 55.3351C47.4316 55.6508 47.1653 55.9289 46.859 56.1582C46.8211 56.181 46.7888 56.2119 46.7643 56.2486C46.3783 56.8439 45.7346 57.1807 45.2842 57.7152C45.0278 57.9834 44.7537 58.2342 44.4637 58.4659C44.4291 58.4926 44.3967 58.522 44.3669 58.5539C43.8919 59.1587 43.2425 59.5795 42.697 60.1132C42.2002 60.5517 41.677 60.9595 41.1302 61.3343C40.89 61.5403 40.6335 61.7268 40.3632 61.8919C39.8859 62.1445 39.5233 62.5483 39.0615 62.8172C38.9132 62.9085 38.7601 62.9921 38.6029 63.0674C37.6799 63.4837 36.7332 63.8033 35.6947 63.7316C35.5764 63.7231 35.4545 63.7292 35.3336 63.7285C35.1354 63.7424 34.9386 63.6873 34.7767 63.5726C34.6148 63.458 34.4978 63.291 34.4456 63.1C34.2939 62.682 34.111 62.276 33.8984 61.8853C33.6891 61.5379 33.5562 61.1501 33.5086 60.7477C33.5015 60.5172 33.4227 60.2947 33.2831 60.1109C33.2128 60.0003 33.1646 59.8773 33.1411 59.7486C33.0194 59.2952 32.9125 58.8388 32.7877 58.3872C32.6746 57.9779 32.5374 57.5756 32.4275 57.1654C32.3864 56.9734 32.3563 56.7792 32.3374 56.5837C32.3317 56.4859 32.3172 56.3887 32.2941 56.2934C32.075 55.619 31.9218 54.9251 31.8368 54.2213C31.8113 54.1042 31.7781 53.9889 31.7377 53.876C31.698 53.7632 31.6671 53.6476 31.6454 53.53C31.5455 52.6868 31.4539 51.8426 31.3571 50.9992C31.3384 50.8369 31.3053 50.6763 31.2861 50.5143C31.2624 50.3105 31.2442 50.105 31.2241 49.901C31.2108 49.7595 31.2004 49.618 31.1853 49.4793C31.1682 49.317 31.145 49.1557 31.1294 48.9936C31.1001 48.6686 31.0674 48.3434 31.0497 48.0174C31.0319 47.6914 31.0326 47.3648 31.021 47.0381C30.9993 46.4628 30.9993 45.8843 30.9458 45.3113C30.927 44.6921 30.9659 44.0724 31.062 43.4603C31.1192 42.831 31.1581 42.1991 31.204 41.5689C31.2326 41.1665 31.2357 40.7604 31.2953 40.3634C31.3481 40.0096 31.4721 39.6669 31.5495 39.3162C31.6205 38.9871 31.6695 38.652 31.7369 38.3215C31.7758 38.1307 31.8316 37.9441 31.8818 37.7554C31.9119 37.686 31.9308 37.6122 31.9376 37.5368C31.8773 36.9707 32.14 36.4712 32.2583 35.9435C32.3878 35.3704 32.5423 34.8029 32.6992 34.2352C32.8287 33.7634 32.9832 33.2993 33.1098 32.8266C33.1773 32.5749 33.2021 32.3122 33.2563 32.0567C33.2867 31.9441 33.3251 31.8338 33.3711 31.7265C33.5131 31.3491 33.6679 30.9767 33.7971 30.5944C33.8668 30.3654 33.9718 30.1486 34.1086 29.9519C34.2039 29.8067 34.2729 29.6459 34.3124 29.4769C34.4444 28.981 34.668 28.5141 34.9717 28.0999C35.1127 27.8809 35.238 27.6524 35.3468 27.4159C35.4498 27.2251 35.553 27.0345 35.6576 26.8451C35.7574 26.6644 35.8606 26.4845 35.9612 26.3026C36.1742 25.9233 36.3872 25.5457 36.5974 25.165C36.8229 24.7549 37.0376 24.3395 37.27 23.9324C37.3508 23.8171 37.4415 23.7091 37.5412 23.6095C38.0836 22.9555 38.4625 22.1962 38.9139 21.4827C39.0183 21.3039 39.1408 21.1362 39.2795 20.9822C39.7459 20.4917 40.1671 19.9602 40.5379 19.3944C40.7504 19.0647 40.9977 18.7587 41.2756 18.4816C41.567 18.1752 41.836 17.8482 42.0802 17.5032C42.1085 17.4568 42.1417 17.4135 42.1794 17.3742C42.4788 17.142 42.7561 16.8827 43.0077 16.5996C43.3199 16.269 43.6513 15.957 44.0003 15.6651C44.1075 15.5566 44.2226 15.4559 44.3444 15.364C44.6695 15.1255 44.9611 14.8447 45.2116 14.5292C45.4371 14.2658 45.7632 14.1184 46.0011 13.8381C46.3419 13.502 46.7181 13.2035 47.1231 12.9478C47.4192 12.7253 47.7089 12.4928 48.0225 12.2991C48.6061 11.9409 49.2089 11.6132 49.7953 11.2613C49.9806 11.1493 50.1371 10.991 50.3129 10.863C50.409 10.7743 50.5228 10.707 50.6469 10.6653C51.0669 10.5882 51.3542 10.2879 51.7014 10.0877C51.8418 10.0065 51.9904 9.94239 52.1331 9.86455C52.2735 9.81086 52.4026 9.73151 52.5137 9.63057C52.7122 9.41493 52.9486 9.23738 53.2114 9.10672C53.4166 8.94805 53.6401 8.81431 53.8771 8.70835C54.3405 8.55244 54.7869 8.34464 55.2346 8.14534C55.6523 7.95924 56.063 7.75616 56.4752 7.56063C56.5038 7.54413 56.534 7.53039 56.5652 7.51959C57.3448 7.29552 58.0304 6.84455 58.8007 6.59972C59.2977 6.44146 59.7879 6.26951 60.2737 6.0754C60.7097 5.93622 61.1528 5.82048 61.6012 5.72868C61.9157 5.64141 62.222 5.52701 62.5318 5.42606C62.5836 5.40862 62.6364 5.39421 62.6899 5.3829C63.1525 5.25264 63.6241 5.15662 64.1009 5.09562C64.7292 5.05623 65.3057 4.77437 65.935 4.76541C66.0443 4.75579 66.1508 4.72561 66.2489 4.67649C66.5754 4.54489 66.9316 4.50413 67.2795 4.55856C67.4094 4.57092 67.5403 4.56544 67.6686 4.54228C68.3381 4.43489 69.0066 4.32293 69.6741 4.20641C69.8346 4.17858 69.988 4.11749 70.1475 4.08848C70.3496 4.04636 70.5544 4.01799 70.7604 4.00357C71.0225 4.00055 71.2824 3.95653 71.5308 3.87314C71.6873 3.8347 71.851 3.83681 72.0065 3.87927C72.1325 3.90013 72.2611 3.90013 72.3871 3.87927C72.6901 3.84967 72.9947 3.83707 73.2992 3.84153C73.3854 3.85503 73.4723 3.86408 73.5595 3.86866C74.0328 3.81464 74.491 3.94909 74.9558 3.98211C75.1194 3.99366 75.2836 3.98989 75.4479 3.99602C75.8523 4.00994 76.2568 4.02692 76.6612 4.04013C76.8032 4.04646 76.9455 4.04465 77.0873 4.0347C77.4805 3.9957 77.8775 4.04288 78.2505 4.17292C78.3421 4.20864 78.4373 4.23426 78.5345 4.24934C79.2722 4.34369 80.0084 4.45714 80.7492 4.51351C81.2845 4.55455 81.8142 4.56068 82.306 4.8232C82.5012 4.89446 82.7032 4.94567 82.9088 4.97604C83.7177 5.19547 84.5147 5.45685 85.2963 5.7591C85.5874 5.90773 85.8973 6.01658 86.2176 6.08271C86.3356 6.10857 86.4479 6.15564 86.5489 6.22163C86.8393 6.37274 87.1465 6.48935 87.4641 6.56906C87.8622 6.68637 88.2531 6.82663 88.6349 6.98913C88.9999 7.13278 89.3603 7.28868 89.7174 7.45166C89.9541 7.56063 90.1692 7.71418 90.4102 7.80758C90.786 7.95429 91.1758 8.06703 91.5594 8.1944C91.6636 8.226 91.7658 8.26389 91.8654 8.30785C92.0607 8.39984 92.2521 8.49937 92.4443 8.5982C92.4855 8.61313 92.5223 8.63811 92.5513 8.67084C92.7132 8.92487 92.9744 8.97346 93.2393 9.0586C93.5424 9.17857 93.8353 9.32292 94.1149 9.49023C94.1623 9.51382 94.2025 9.57066 94.2513 9.57821C94.5692 9.65731 94.8697 9.79421 95.1378 9.98201C95.3116 10.0896 95.4771 10.2099 95.6329 10.3419C95.8026 10.4754 95.9631 10.6207 96.1335 10.7542C96.4565 10.9755 96.7617 11.2215 97.0463 11.4901C97.2085 11.6136 97.3774 11.7281 97.5523 11.8331C97.8753 12.1071 98.3096 12.213 98.6007 12.5319C98.6359 12.5743 98.6797 12.6088 98.7292 12.6331C99.2097 12.8308 99.5296 13.2301 99.9156 13.5497C100.153 13.721 100.403 13.8732 100.665 14.0047C100.729 14.0424 100.829 14.0533 100.861 14.1073C101.03 14.3239 101.258 14.487 101.518 14.5769C101.857 14.7559 102.155 15.0031 102.394 15.3029C102.599 15.5569 102.828 15.7925 103.056 16.0272C103.425 16.4072 103.802 16.7801 104.175 17.1556C104.344 17.3247 104.514 17.4924 104.681 17.6636C104.72 17.702 104.752 17.7464 104.777 17.795C105.083 18.4483 105.605 18.9349 106.068 19.4696C106.089 19.4932 106.12 19.5137 106.133 19.5423C106.343 20.001 106.754 20.2982 107.058 20.6798C107.072 20.6968 107.093 20.71 107.101 20.7294C107.265 21.1104 107.526 21.4424 107.858 21.6924C107.899 21.7293 107.926 21.7794 107.934 21.8339C107.977 22.0149 108.074 22.1785 108.213 22.3033C108.268 22.3705 108.318 22.442 108.362 22.5172C108.534 22.7814 108.696 23.051 108.877 23.3081C109.064 23.5354 109.206 23.7969 109.293 24.0779C109.314 24.1624 109.354 24.2411 109.409 24.3089C109.739 24.6587 109.989 25.0761 110.14 25.532C110.146 25.5645 110.161 25.5947 110.183 25.6193C110.647 26.0604 110.8 26.6866 111.129 27.2079C111.288 27.5021 111.426 27.8071 111.542 28.1206C111.653 28.3692 111.766 28.616 111.879 28.8636C111.896 28.8921 111.91 28.9215 111.923 28.9516C112.084 29.4721 112.244 29.9929 112.405 30.514C112.428 30.5965 112.448 30.6824 112.477 30.7642C112.653 31.2447 112.832 31.7235 113.004 32.2044C113.035 32.3087 113.058 32.415 113.075 32.5226C113.084 32.6312 113.105 32.7384 113.138 32.8424C113.341 33.2995 113.408 33.8069 113.659 34.2472C113.713 34.354 113.753 34.4675 113.777 34.5847C113.86 34.9223 113.941 35.2605 114.014 35.6004C114.065 35.8435 114.093 36.0914 114.141 36.3355C114.177 36.5501 114.228 36.7617 114.294 36.9688C114.372 37.2067 114.413 37.4553 114.415 37.7057C114.438 37.932 114.472 38.157 114.518 38.3798C114.564 38.6809 114.607 38.9823 114.649 39.2841C114.652 39.3931 114.664 39.5017 114.684 39.6091C114.942 40.4872 114.922 41.3969 115.004 42.2958C115.063 42.9437 115.125 43.5931 115.155 44.2426C115.176 44.7092 115.145 45.1786 115.137 45.6467C115.131 45.6789 115.127 45.7115 115.127 45.7442C115.242 46.5025 114.998 47.2386 114.989 47.9891" fill="#070707"/>
<path d="M55.8963 161.786V161.599C56.054 161.6 56.2112 161.583 56.3651 161.549C56.5063 161.519 56.6436 161.473 56.7743 161.413C56.8893 161.359 56.9908 161.28 57.0716 161.182C57.1494 161.09 57.1913 160.973 57.1899 160.852V154.668C57.1937 154.542 57.1478 154.42 57.0621 154.328C56.971 154.233 56.8615 154.158 56.7402 154.107C56.6008 154.047 56.4549 154.005 56.3055 153.979C56.148 153.951 55.9882 153.937 55.8281 153.937V153.75H59.9698V153.937C59.8154 153.937 59.6613 153.951 59.5095 153.979C59.3565 154.006 59.2076 154.051 59.0662 154.115C58.9418 154.169 58.8292 154.247 58.7349 154.345C58.649 154.437 58.6031 154.559 58.6071 154.684V160.869C58.6042 160.934 58.6149 161 58.6383 161.061C58.6617 161.123 58.6975 161.179 58.7434 161.226C58.8415 161.321 58.9574 161.396 59.0844 161.446C59.2264 161.505 59.3754 161.544 59.5277 161.564C59.6745 161.586 59.8226 161.597 59.971 161.598V161.785L55.8963 161.786Z" fill="#070707"/>
<path d="M68.5792 159.306C68.3927 159.783 68.1179 160.221 67.7693 160.597C67.4188 160.973 66.992 161.272 66.5171 161.472C66.0043 161.686 65.4529 161.793 64.8969 161.786C64.3814 161.788 63.8721 161.675 63.4059 161.456C62.9362 161.236 62.5158 160.924 62.17 160.538C61.8123 160.139 61.5296 159.678 61.3355 159.179C61.1311 158.668 61.0267 158.123 61.0279 157.574C61.0253 156.907 61.1407 156.246 61.3689 155.62C61.5979 154.992 61.91 154.398 62.2971 153.853C62.6958 153.291 63.1498 152.77 63.6525 152.298C64.1541 151.825 64.696 151.396 65.272 151.015C65.822 150.652 66.3974 150.328 66.9938 150.047C67.532 149.791 68.0912 149.58 68.6651 149.418L68.8007 149.622C68.3359 149.827 67.8883 150.068 67.4624 150.344C66.4881 150.976 65.6291 151.769 64.9222 152.689C64.5283 153.202 64.183 153.751 63.8908 154.328C64.0727 154.274 64.2577 154.232 64.4449 154.201C64.6622 154.17 64.8816 154.156 65.1011 154.158C65.6288 154.151 66.1529 154.246 66.644 154.439C67.0824 154.611 67.4814 154.87 67.8168 155.2C68.1523 155.53 68.4173 155.924 68.596 156.359C68.7796 156.803 68.8724 157.28 68.8689 157.76C68.8718 158.289 68.7734 158.814 68.579 159.306M67.1803 157.055C67.0861 156.61 66.9271 156.181 66.7084 155.781C66.5063 155.413 66.2247 155.094 65.8838 154.847C65.5303 154.599 65.1058 154.471 64.6735 154.482C64.4932 154.48 64.3136 154.505 64.1412 154.558C63.9758 154.612 63.8277 154.709 63.7119 154.838C63.2756 155.307 62.963 155.876 62.8022 156.495C62.6439 157.097 62.5631 157.716 62.5619 158.338C62.5619 159.357 62.7764 160.147 63.2052 160.708C63.4052 160.979 63.6684 161.197 63.9721 161.344C64.2758 161.49 64.6107 161.561 64.948 161.55C65.2742 161.558 65.598 161.493 65.8954 161.359C66.1928 161.225 66.4559 161.026 66.6653 160.777C67.1116 160.261 67.3348 159.488 67.3348 158.457C67.3342 157.986 67.2824 157.516 67.1805 157.056" fill="#070707"/>
<path d="M75.9274 161.701V165.626H74.4272V161.701H69.4156C69.3594 161.707 69.3028 161.695 69.2537 161.667C69.2258 161.644 69.2397 161.588 69.2963 161.498L70.0813 160.359L75.4002 153.58H75.8938V160.393H78.2473V161.701H75.9274ZM74.4272 155.347L70.4209 160.393H74.4272V155.347Z" fill="#070707"/>
<path d="M86.2234 154.455C86.0645 154.846 85.8572 155.35 85.6012 155.967C85.3453 156.585 85.0583 157.29 84.7402 158.083C84.4225 158.876 84.0844 159.708 83.7259 160.581C83.3674 161.453 83.0066 162.353 82.6434 163.281C82.2805 164.21 81.9284 165.117 81.5871 166L80.4443 165.949C80.5008 165.835 80.6349 165.569 80.8466 165.151C81.0583 164.733 81.3135 164.22 81.612 163.612C81.9127 163.006 82.2449 162.337 82.6086 161.607C82.9723 160.877 83.3359 160.132 83.6996 159.373C84.0638 158.615 84.4135 157.873 84.7488 157.147C85.084 156.422 85.3707 155.771 85.6088 155.193H80.9898C80.6844 155.183 80.3801 155.235 80.0957 155.346C79.8818 155.435 79.6875 155.565 79.5239 155.729C79.3841 155.872 79.2663 156.035 79.1743 156.213C79.0891 156.383 79.0181 156.536 78.9613 156.672L78.7568 156.604L79.8649 153.75H86.5133C86.4793 153.829 86.3826 154.064 86.2234 154.455" fill="#070707"/>
</g>
</g>
<defs>
<clipPath id="clip0_62_21">
<rect width="142" height="166" fill="white"/>
</clipPath>
</defs>
</svg>
