<?xml version="1.0" encoding="UTF-8"?>
<svg id="_레이어_2" data-name="레이어 2" xmlns="http://www.w3.org/2000/svg" viewBox="0 0 315.71 353.17">
  <defs>
    <style>
      .cls-1 {
        fill: #fdffee;
      }
    </style>
  </defs>
  <g id="_레이어_1-2" data-name="레이어 1">
    <g>
      <g>
        <path class="cls-1" d="M272.42,23.72c7.18-1.9,11.19-7.06,10.55-13.18C282.3,4.07,277.12,0,270.35,0l-87.61.12c-7.06,0-11.32,6.44-11.07,12.24.25,5.69,4.38,11.34,11.15,11.34l89.6.02ZM282.8,350.09c2.52-2.79,3.68-6.95,4.61-11.09l-24,.18-75.74.09-22.03-.78c.8,4.27,2.53,11.04,6.75,12.64,8.7,3.3,17.69,1.61,26.72,1.6l69.48-.06c4.7,0,10.34,1.73,14.22-2.58Z"/>
        <g>
          <path class="cls-1" d="M315.71,236.73v24.65c-2.52,18.44-4.43,37.01-10.86,55.05-3.32,9.33-10.28,16.78-20.92,16.76l-114.56-.13c-10.52-.01-17.3-7.72-20.1-16.5-5.66-17.79-8.2-35.57-9.24-54.24-2.95-53.15,11.1-114.08,43.24-157.05,4.53-6.05,9.39-11.93,11.26-19.3,4.99-19.69-5.41-39.59-14.14-57.48l93.37.2c-10.7,22.26-22.72,48.77-6.63,70.15,30.28,40.85,43.12,88.91,48.59,137.88Z"/>
          <path class="cls-1" d="M272.42,23.72l-89.6-.02c-6.77,0-10.9-5.65-11.15-11.34-.26-5.8,4.01-12.23,11.07-12.24L270.35,0c6.77,0,11.95,4.07,12.62,10.54.64,6.12-3.37,11.27-10.55,13.18Z"/>
          <path class="cls-1" d="M282.8,350.09c-3.89,4.31-9.52,2.58-14.22,2.58l-69.48.06c-9.03,0-18.02,1.7-26.72-1.6-4.22-1.6-5.95-8.37-6.75-12.64l22.03.78,75.74-.09,24-.18c-.93,4.13-2.09,8.3-4.61,11.09Z"/>
        </g>
      </g>
      <path class="cls-1" d="M23.79,344.36c-14.62-1-23.68-15.14-23.05-27.55-.46-3.34-.25-5.15.02-8.07,1.45-15.82-1.03-15.86,0-30.73.59-8.56.52-17.11.11-25.74-.33-6.88-2.61-14.53,1.98-20.73,6.26-8.46,27.57-9.41,37.89-10.71,7.74-.97,15.1-.07,22.84.56,10.12.82,20.14.86,29.53,5.72,3.52,1.83,8.58,5.44,8.58,10.12v76.8c0,7.28-2.19,14.91-6.29,20.7s-12.51,9.45-20.24,9.74c-16.95.65-33.81,1.08-51.35-.12ZM93.13,243.37c2.81-1.97-.81-6.34-3.32-7.33-9.93-3.91-20.09-4.85-30.84-5.6-15.09-1.05-29.51-.11-43.83,4.95-2.75.97-5.43,3.05-6.84,5.52,6.22,9.08,26.79,9.68,37.44,10.77,11.84,1.22,38.47-2.06,47.39-8.32Z"/>
    </g>
  </g>
</svg>